# xmcd
#
# Track frame offsets: 
#        150
#        21781
#        42444
#        62399
#        82764
#        105480
#        127329
#        146485
#        168062
#        187131
#        210374
#        227636
#        259391
#        279603
#        314688
#        347370
#
# Disc length: 4800 seconds
#
# Revision: 1
# Processed by: cddbd v1.5.2PL0 Copyright (c) Steve Scherf et al.
# Submitted via: ExactAudioCopy v0.99pb4
#
DISCID=e012be10
DTITLE=The Communards - [CD 1) Red (Deluxe Edition 2012)
DYEAR=1987
DGENRE=Synthie-Pop
TTITLE0=Tomorrow
TTITLE1=T.M.T. Love T.B.M.G.
TTITLE2=Matter Of Opinion
TTITLE3=Victims
TTITLE4=For A Friend
TTITLE5=Never Can Say Goodbye
TTITLE6=Lovers And Friends
TTITLE7=Hold On Tight
TTITLE8=If I Could Tell You
TTITLE9=C Minor
TTITLE10=For A Friend (BBC Unplugged Live)
TTITLE11=Never Can Say Goodbye (San Paulo Mix)
TTITLE12=Romanze For Violin, Piano and Hedgehog
TTITLE13=There's More To Love (Jalapeno Mix)
TTITLE14=Tomorrow (Extended 12" Version)
TTITLE15=Zing Went The Strings Of My Heart
EXTD=
EXTT0=
EXTT1=
EXTT2=
EXTT3=
EXTT4=
EXTT5=
EXTT6=
EXTT7=
EXTT8=
EXTT9=
EXTT10=
EXTT11=
EXTT12=
EXTT13=
EXTT14=
EXTT15=
PLAYORDER=
